/* XPM */
static char *_05bbf41e06c4ed8f1d4a9b907fb0ff9TZVdmI3gViNSdSGE[] = {
/* columns rows colors chars-per-pixel */
"64 64 42 1 ",
"  c None",
". c #1C1618",
"X c #201B1B",
"o c #291818",
"O c #2D1C1B",
"+ c #371919",
"@ c #3A1D1B",
"# c gray13",
"$ c #3D3232",
"% c #441B19",
"& c #471E1B",
"* c #511C19",
"= c #5F1E1A",
"- c #6C1F1A",
"; c #4D2415",
": c #4E281A",
"> c #7A2C0F",
", c #642812",
"< c #642C16",
"1 c #61201B",
"2 c #7A3012",
"3 c #643627",
"4 c #91310C",
"5 c #87221B",
"6 c #94241B",
"7 c #A63308",
"8 c #A73509",
"9 c #A8370B",
"0 c #BE3906",
"q c #BE3B07",
"w c #D53E03",
"e c #D53E04",
"r c #D03516",
"t c #D63811",
"y c #E23E07",
"u c #EB4200",
"i c #EA4804",
"p c #E66B1A",
"a c #E57722",
"s c #EEA82B",
"d c #EFC537",
"f c #F4ED5E",
/* pixels */
"                                                                ",
"                                                                ",
"                                                                ",
"                    u                                           ",
"                     u       r                                  ",
"                             r                    6    6        ",
"              u    u         rr                                 ",
"                             rar                                ",
"               #              aar    r      XXX                 ",
"              ##              rdarr  rrr     X..                ",
"             #:2   u     r    radar  rar     X...               ",
"            #2q8X        ar   rrdfarra$dr   X....+              ",
"            #9>XX        rar   rrdfdaa#$ar X.......             ",
"           ##;XXX;u      rdar  r$adfdar#$drr.......             ",
"           #XXXXX8;X      rdarrr$$rafdrr#$dr........            ",
"          XXXXX..XX;wu    rfdarar#$rfdar##$ar. ......           ",
"         #XXXX. .XXu,..    afdadrr#$rfda##dar.  .......         ",
"       ##XXXX.   .X>XX..    afdfa$##$rfda#fdar   ..%=...        ",
"      ##XXXXX   u XXXXX...  aadadrr##$rda#$faarX X.o%X...       ",
"   #  XXX#XX    u  XXXXX....rraraar###rrdr#$darXXX....X..+      ",
"   #X #X##X #    u  XXXX.r...rr rddrr##rar##$arX..  ... *5.X    ",
"   ##X###XX###      X8X..a.#####rradr###rXX##r X. 66 ..X6%XX    ",
"   ##X##X XX#:uu    8u7.#dar######raar#$##XX#r  X-   .XX  XX    ",
"   ##X##X   #9uu    7u:#$dr##rX####rar##$###$    @    XX  XX    ",
"   ## ##    #u      .#$$$####aXXX###r###$###$#        XX XX     ",
"   ## ##   #        ##$$#####arXXXXXr##dd$#$dX.      XX6        ",
"   ## ##           u<$$##X###dXXXXXXXXXXXf#fXX.r                ",
"   #   ## $$       e:##XXr###XXXXXXXXra$#X#X#Xr.  =6            ",
"    #    $$   uu ##3####rar#XXXXXX...$rd$$##$arX. %+            ",
"         $    uu:$$###X#a##XXX.......##f$fda$arX.. ..           ",
"        $$  $$ :$$##28X#XXXXXXX.......#$fffdarXrXX X..          ",
"        $$$$$$r####4quXXXXXXXXX........#$ar$rX..XX.OO..         ",
"       $$####aar##X8   XXXXXXXX....... #r#$##r....X&1...        ",
"       $####r#dpyXX    XXXXXX........   ####   ..XXO&X..        ",
"       $###r###si8     #X...........            XXXXXX...       ",
"       #########tt     #XX...........           XXXXXXX..       ",
"       ##########X     ##XX..XXX.....           .XXXXXX..       ",
"        $###r####XX    ###XXXXXXXX....           .XXXXXX.       ",
"        $###ar###XX    ####XXXXXXXXX...          .XXXXXX.       ",
"         $##dar##XX     ##XXXXXrXXXXX..           .XXXXX.       ",
"          $rd####XX     ##X#X#ra#XaXX.            ..XXXX.       ",
"          $$###r#X     X##X#rXX###XXX..            X.XXXXX      ",
"           $r#####X r  XXXXXraXX#r#XXX..           XXXXXXX      ",
"            a###r##ra   XX#XXadXraa#XXX..         XXXXXXXXX     ",
"            ####r###dr  XXrXXX##XXd#XaX...       XXXX..X.XX     ",
"          $r###a#XXX#ar  XX##XXrrXXXXXXX...      XX....X..XX    ",
"          $r##ra#X  X#r  XX##rXXadaXXXXX..       XXX ..X .XX    ",
"          ra#XXd#X   ##  XX#raXX.fdrXXrXX..       XXX .X .XX    ",
"         $d#XX a##X X##  XrXadXXX..aXX.aX...       XX... .XX    ",
"         ra#XX r##X X#   XaXd.XarXXXXaXXXX..         ... XX     ",
"          r##X  r##     XaXXXXrddXrXXdaXaXX...      ... XXX     ",
"          r$##   $##    XdXrXX.ffddXX.da.rXX..                  ",
"           $##    $#    XXXaXX.dfffdXXXXXXXXr..                 ",
"            $##        .XXXadXXXdffddXXXdaXXaX.                 ",
"             $#        .a.XdfXfX.dffdaXXfdrXXa...               ",
"                      X.ra.XXXdfX..dfdr.Xda......               ",
"                     X...r....addX........aa.....               ",
"                     ..........aa...............                ",
"                            .................                   ",
"                                                                ",
"                                                                ",
"                                                                ",
"                                                                ",
"                                                                "
};
