/* XPM */
static char *_434110834c84afccdba46284b541e56KJ1ehu8NikQmhyaG[] = {
/* columns rows colors chars-per-pixel */
"64 64 8 1 ",
"  c None",
". c #201B1B",
"X c gray13",
"o c #3D3232",
"O c #D03516",
"+ c #E57722",
"@ c #EFC537",
"# c #F4ED5E",
/* pixels */
"                                                                ",
"                                                                ",
"                                                                ",
"                                                                ",
"                   OOOO       +                                 ",
"                    O+OOO     +                                 ",
"                    O+++OOOO    +                               ",
"                     O+@++OOOO  ++                              ",
"                 OOOOO+@@+++OOO  X  +@                          ",
"                  OO+++@#@@@+@OOXXXXXX+@                        ",
"                  O++@+##oooo#@OOXXXXXX+XXX                     ",
"                OO++oo@XXXXXXo#@+OXXXXXX+XXX                    ",
"                O+@ooXXX@XXXXXoo++OXXXXXXXXXXXX                 ",
"                +#ooXXXXXXXXXXXXo+OXXXXXX+XXXXXX                ",
"             OOO+oooXXXXX+XXXXXXoOOXXXXX+@XXXXXXX               ",
"             OO++ooXXXXXX+++XXXXXOXXXXXX+XXXXXXXXX              ",
"             OO+ooXXXXXXXXX+XXXXXXXXXoXX+XXXXXXXXXX             ",
"              O+ooXXXXXXXXX++XXXXXXXXoo@@XXXXXXXXXX             ",
"               +ooXXXXXXXXXX+@XXXXXXXXo@XXXXXXXXXXXX            ",
"               ooXXXXXXXXXXXX@@XXXXXX@@@XXXXXXXXXXXXX           ",
"              ooXXXXXXXXXXXXXX@#XXXX#@@oXXXXXXXXXXXXX           ",
"              oXXXXXXXXXXXXXXXX##XX##XoXXXXXXXXXXXXXX           ",
"      oo     oXXXXXXXXXXXXXXXXXXXXXXXXoXXXXXXXXX..XX.           ",
"     oo     oXXXXXXXXXXXXXXXXXXXXXXXXooXXXXXXXX......    X      ",
"     oo    oXXXXXXXXXXXXXXXXXXXXXXXXXoXXXXXXX.........   XX     ",
"     oo   XXXXXXX.XXXXXXXXXXXXXXXXXXooXXXXXX..........   XX     ",
"     ooo XXXXXXXX..XXXXXXXXXXXXXXXoooXXXXXX..  .......  XX.     ",
"     ooooXXXXX. O...XXXXXXXXXXXXXooXXXXXXX..   ........ X..     ",
"     oXXooooo.. O+#.XXXXXXXXXXXXXXXXXXXXX...    ....... X..     ",
"     oXXXXXXoo.  O@..XXXXXXXXXXXXXXXXXXX...      ......XX..     ",
"     oXXXXXXXoo   +@...XXXXXXXXXXXXXXXXX..        ....XX...     ",
"     oXXXXXXXXX   O+...XXXXXXXXXXXXXooX...         ..XX....     ",
"     oXXXXXXXXX   O+@...XXXXXXXXXXXo@OX.X          .XX....      ",
"     oXXXXXXXXX    OO...XXXXXXXXXXo@+XX.           XX......     ",
"     XXXXXXXXXX      O...XXXXXXXXXoOXX..  O         .......     ",
"     XXXXXXXXXX       ...XXXXXXXXXoXXX..  O         ........    ",
"      XXXXXXXXX        ...oXXXXXXXXXXX..  O          .......    ",
"      XXXXXXXX         ..XOoXXXXXXXXXOO.  O           .......   ",
"       XXXXXXX         ..o@+oXXXXXXXXXO. OO O          ......   ",
"       XXXXXXXX         .o#+OXXXXXXXXXO. OO +          ......   ",
"        XXXXXXXXX       OXOooXXOXXXXXXX. +OO          ........  ",
"       XXXXXXXXXXX      OXXXXXXOOXXXXXXX + O          ........  ",
"      XXXXXXXXXXXXX    XOXXXXXX+OOXXXXXXX++OO         ........  ",
"      XXXXXXX...XXX    XOOXXXXXXOOOXXXXXXOO+O         .. .....  ",
"     XXXXXXX.. .XXXX   XOOXXXXXXO+OXXXXXXXO++O        .  .....  ",
"    XXXXXXXX..    XX   XOOOXXXXXO+OXXXXXXXO@+OO         ......  ",
"    XXXXXXXX.     XX OOXXO+OXXXXXO+OXXXXXXO@++O         .. ...  ",
"    XXXX..XX..       OOXXX+OOXXXXO++OXXXXXO+@+OO        .. ..   ",
"     XXX. XXXXX      OOXXX++OXXXXO@+OOXXXXOO@++O        . ..    ",
"     XXX.  XXXXX     OOOXXO++OXXOO@++OOXXXOO+@++O         .     ",
"      XXX   XXXXXX   O+OXXX++OXXOO+@+OOXXOOO+@@+O               ",
"      XXXX     XX   OO+OXXXX+OXXXO+@+OOXOO+++#@@+O              ",
"       XXXX         OO+OOXXX+OXXXO+@++OOO+@++##@+O              ",
"                    OO++OXXO+OXXOO+@@++OO+#@@@+++O              ",
"                    O+@+OOOO@OOOOO+#@++@++##@++++               ",
"                  OOO+@#@+++@++++@@+@#@@+@@++O+                 ",
"                    OO+#@@@@#@##@@@++@#@@@++                    ",
"                      +O+@+@@#@@+O  O++@++                      ",
"                        O++OOOOO       OO                       ",
"                                                                ",
"                                                                ",
"                                                                ",
"                                                                ",
"                                                                "
};
