/* XPM */
static char *_cf2bdcb750e487aef507a770a672836d1mvQPnCHV1AQ4jo[] = {
/* columns rows colors chars-per-pixel */
"64 64 8 1 ",
"  c None",
". c #201B1B",
"X c gray13",
"o c #3D3232",
"O c #D03516",
"+ c #E57722",
"@ c #EFC537",
"# c #F4ED5E",
/* pixels */
"                                                                ",
"                                                                ",
"                                                                ",
"                                                                ",
"                                  +       OOOO                  ",
"                                  +     OOO+O                   ",
"                                +    OOOO+++O                   ",
"                               ++  OOOO++@+O                    ",
"                           @+  X  OOO+++@@+OOOOO                ",
"                         @+XXXXXXOO@+@@@#@+++OO                 ",
"                      XXX+XXXXXXOO@#oooo##+@++O                 ",
"                     XXX+XXXXXXO+@#oXXXXXX@oo++OO               ",
"                  XXXXXXXXXXXXO++ooXXXXX@XXXoo@+O               ",
"                 XXXXXX+XXXXXXO+oXXXXXXXXXXXXoo#+               ",
"                XXXXXXX@+XXXXXOOoXXXXXX+XXXXXooo+OOO            ",
"               XXXXXXXXX+XXXXXXOXXXXX+++XXXXXXoo++OO            ",
"              XXXXXXXXXX+XXoXXXXXXXXX+XXXXXXXXXoo+OO            ",
"              XXXXXXXXXX@@ooXXXXXXXX++XXXXXXXXXoo+O             ",
"             XXXXXXXXXXXX@oXXXXXXXX@+XXXXXXXXXXoo+              ",
"            XXXXXXXXXXXXX@@@XXXXXX@@XXXXXXXXXXXXoo              ",
"            XXXXXXXXXXXXXo@@#XXXX#@XXXXXXXXXXXXXXoo             ",
"            XXXXXXXXXXXXXXoX##XX##XXXXXXXXXXXXXXXXo             ",
"            .XX..XXXXXXXXXoXXXXXXXXXXXXXXXXXXXXXXXXo     oo     ",
"       X    ......XXXXXXXXooXXXXXXXXXXXXXXXXXXXXXXXXo     oo    ",
"      XX   .........XXXXXXXoXXXXXXXXXXXXXXXXXXXXXXXXXo    oo    ",
"      XX   ..........XXXXXXooXXXXXXXXXXXXXXXXXX.XXXXXXX   oo    ",
"      .XX  .......  ..XXXXXXoooXXXXXXXXXXXXXXX..XXXXXXXX ooo    ",
"      ..X ........   ..XXXXXXXooXXXXXXXXXXXXX...O .XXXXXoooo    ",
"      ..X .......    ...XXXXXXXXXXXXXXXXXXXXX.#+O ..oooooXXo    ",
"      ..XX......      ...XXXXXXXXXXXXXXXXXXX..@O  .ooXXXXXXo    ",
"      ...XX....        ..XXXXXXXXXXXXXXXXX...@+   ooXXXXXXXo    ",
"      ....XX..         ...XooXXXXXXXXXXXXX...+O   XXXXXXXXXo    ",
"       ....XX.          X.XO@oXXXXXXXXXXX...@+O   XXXXXXXXXo    ",
"      ......XX           .XX+@oXXXXXXXXXX...OO    XXXXXXXXXo    ",
"      .......         O  ..XXOoXXXXXXXXX...O      XXXXXXXXXX    ",
"     ........         O  ..XXXoXXXXXXXXX...       XXXXXXXXXX    ",
"     .......          O  ..XXXXXXXXXXXo...        XXXXXXXXX     ",
"    .......           O  .OOXXXXXXXXXoOX..         XXXXXXXX     ",
"    ......          O OO .OXXXXXXXXXo+@o..         XXXXXXX      ",
"    ......          + OO .OXXXXXXXXXO+#o.         XXXXXXXX      ",
"   ........          OO+ .XXXXXXXOXXooOXO       XXXXXXXXX       ",
"   ........          O + XXXXXXXOOXXXXXXO      XXXXXXXXXXX      ",
"   ........         OO++XXXXXXXOO+XXXXXXOX    XXXXXXXXXXXXX     ",
"   ..... ..         O+OOXXXXXXOOOXXXXXXOOX    XXX...XXXXXXX     ",
"   .....  .        O++OXXXXXXXO+OXXXXXXOOX   XXXX. ..XXXXXXX    ",
"   ......         OO+@OXXXXXXXO+OXXXXXOOOX   XX    ..XXXXXXXX   ",
"   ... ..         O++@OXXXXXXO+OXXXXXO+OXXOO XX     .XXXXXXXX   ",
"    .. ..        OO+@+OXXXXXO++OXXXXOO+XXXOO       ..XX..XXXX   ",
"     .. .        O++@OOXXXXOO+@OXXXXO++XXXOO      XXXXX .XXX    ",
"      .         O++@+OOXXXOO++@OOXXO++OXXOOO     XXXXX  .XXX    ",
"                O+@@+OOOXXOO+@+OOXXO++XXXO+O   XXXXXX   XXX     ",
"               O+@@#+++OOXOO+@+OXXXO+XXXXO+OO   XX     XXXX     ",
"               O+@##++@+OOO++@+OXXXO+XXXOO+OO         XXXX      ",
"               O+++@@@#+OO++@@+OOXXO+OXXO++OO                   ",
"                ++++@##++@++@#+OOOOO@OOOO+@+O                   ",
"                  +O++@@+@@#@+@@++++@+++@#@+OOO                 ",
"                     ++@@@#@++@@@##@#@@@@#+OO                   ",
"                       ++@++O  O+@@#@@+@+O+                     ",
"                        OO       OOOOO++O                       ",
"                                                                ",
"                                                                ",
"                                                                ",
"                                                                ",
"                                                                "
};
