/* XPM */
static char *_3f9c544c7784452931b89daf58faa80w1IwZnmn2SoVS47g[] = {
/* columns rows colors chars-per-pixel */
"64 64 42 1 ",
"  c None",
". c #1C1618",
"X c #201B1B",
"o c #291818",
"O c #2D1C1B",
"+ c #371919",
"@ c #361F18",
"# c #3A1D1B",
"$ c #37251D",
"% c gray13",
"& c #3D3232",
"* c #441B19",
"= c #511C19",
"- c #531F1B",
"; c #5F1E1A",
": c #4A2013",
"> c #4D2415",
", c #4E281A",
"< c #612510",
"1 c #642812",
"2 c #6D211B",
"3 c #7A3012",
"4 c #643627",
"5 c #91330F",
"6 c #94241B",
"7 c #8A391C",
"8 c #A63308",
"9 c #A73509",
"0 c #A8370B",
"q c #BE3906",
"w c #BE3B07",
"e c #B13D11",
"r c #D43D03",
"t c #D53E03",
"y c #D53E04",
"u c #D03516",
"i c #D63811",
"p c #E23E07",
"a c #EB4200",
"s c #E57722",
"d c #EFC537",
"f c #F4ED5E",
/* pixels */
"                                                                ",
"                                                                ",
"                                                                ",
"                                                                ",
"                                   u            a               ",
"                                   u             a              ",
"                                  uu                            ",
"       6    6                    usu      a    a                ",
"                  XXX      u    uss              %              ",
"                 ..X     uuu  uusdu              %%             ",
"                ...X     usu  usdsu    u         %%%            ",
"               .....X   ud&suusfduu   us       a@X%%%           ",
"              .......X us&%ssdfduu   usu  aa    XXX%%           ",
"              .......uud&%usdfds&u  usdu a     XX>XX%%          ",
"             ........ud&%uudfsu&&uuusdu      >0XX>XXX%          ",
"            ...... .us&%%usdfu&%ususdfu     X0>X:<XXXXX         ",
"          ..-+...  .usd%%sdfu&%uudsdfs    ..XXX>ra.XXXX%        ",
"         ...+...   usdf%sdfu&%%&sfdfs    ..XXXXa   .XXXX%%      ",
"        ...X...X Xussf&%sdu&%%uudsdss  ...XXXXX     XXXXX%%     ",
"       .*;X.....XXusd&%uduu%%%ussusuu....XX>0X       XX%XXX  %  ",
"     X..o ...  ..Xus&%%usu%%uuddu uu...u.XX>r       % X%%X% X%  ",
"     XX. X..    .X u%%XXu%%%udsuu%%%%%.s..XX>a     %%%XX%%%X%%  ",
"     XX  XX.  6.X  u%XX%%&%ussu%%%%%%usd%...X    a %%XX X%%X%%  ",
"     XX66XX  6 X    &%%%&%%usu%%%%Xu%%ud&,a8.   aaa%%   X%%X%%  ",
"      2- XX        %&%%%&%%%u%%%XXXs%%%%&ea0.   aa  %    %% %%  ",
"          XX      .Xd&%&dd%%uXXXXXus%%%%%e7%%        %   %% %%  ",
"                 u.XXf%fXXXXXXXXXXXd%%%X%,&&%            %% %%  ",
"            6 .  .uX%X%X%&suXXXXXXXX%%%uXX%%%% a     && %%   %  ",
"             .. .Xus&%%&&du&...XXXXXX%usu%$,%&%y      &&    %   ",
"       66   .. ..Xus&sdf&f%%.......XXX%%s%qy,%&4%      &        ",
"           ..X XXuXusdfff&%.......XXXXXXX%ar,%%&&% &&  &&       ",
"          ..X#oXX..Xu&us&%........XXXXXXXX1 XX%%30u&&&&&&       ",
"         ...#-O....u%%&%u% .......XXXXXXXX   XX5qpss%%%%&&      ",
"         o.XXXXX..   %%%%   ........XXXXXX    X0isd%u%%%%&      ",
"        *;.XXXXXX            ...........X%  a  Xsd%%%u%%%&      ",
"        o*XXXXXXX           ...........XX%  aa uu%%%%%%%%%      ",
"        ..XXXXXX.           .....XXX..XX%%     X%%%%%%%%%%      ",
"        .XXXXXX.           ....XXXXXXXX%%%    XX%%%%u%%%&       ",
"        .XXXXXX.          ...XXXXXXXXX%%%%    XX%%%us%%%&       ",
"        .XXXXX.           ..XXXXXuXXXXX%%     XX%%usd%%&        ",
"        .XXXX..            .XXsX%su%X%X%%     XX%%%%du&         ",
"       XXXXX.X            ..XXX%%%XXu%X%%X     X%u%%%&&         ",
"       XXXXXXX           ..XXX%u%XXsuXXXXX  u X%%%%%u&          ",
"      XXXXXXXXX         ..XXX%ssuXdsXX%XX   su%%u%%%s           ",
"      XX.X..XXXX       ...XsX%dXX%%XXXuXX  ud%%%u%%%%           ",
"     XX..X....XX      ...XXXXXXXuuXX%%XX  us%XXX%s%%%u&         ",
"     XX. X.. XXX       ..XXXXXsdsXXu%%XX  u%X  X%su%%u&         ",
"     XX. X. XXX       ..XXuXXudf.XXsu%XX  %%   X%dXX%su         ",
"     XX. ...XX       ...Xs.XXs..XXXdsXuX  %%X X%%s XX%d&        ",
"      XX ...         ..XXXXsXXXXusX.dXsX   %X X%%u XX%su        ",
"      XXX ...      ...XXsXsdXXuXdduXXXXsX     %%u  X%%u         ",
"                   ..XXu.sd.XXddff.XXuXdX    %%&   %%&u         ",
"                  ..uXXXXXXXXdfffd.XXsXXX    %&    %%&          ",
"                  .XsXXsdXXXddffdXXXdsXXX.        %%&           ",
"                ...sXXudfXXsdffd.XfXfdX.s.        %&            ",
"                ......sdX.udfd..XfdXXX.su.X                     ",
"                .....ss........Xdds....u...X                    ",
"                 ...............ss..........                    ",
"                    .................                           ",
"                                                                ",
"                                                                ",
"                                                                ",
"                                                                ",
"                                                                "
};
