/* XPM */
static char *_52cd71567a048bb9afbd40eb9aec3c0cCRqPRR7xdsX4fNZ[] = {
/* columns rows colors chars-per-pixel */
"64 64 191 2 ",
"   c None",
".  c #000000",
"X  c #0C0300",
"o  c #0C0C0C",
"O  c #130500",
"+  c #1E0900",
"@  c #10100F",
"#  c #181717",
"$  c #131312",
"%  c #260B00",
"&  c #2B0C00",
"*  c #340F00",
"=  c #251104",
"-  c #351001",
";  c #3B1100",
":  c #3C1C03",
">  c #242423",
",  c #3B3A39",
"<  c #451300",
"1  c #4D1600",
"2  c #531700",
"3  c #561900",
"4  c #5B1B00",
"5  c #621C00",
"6  c #6B1E00",
"7  c #563D13",
"8  c #732000",
"9  c #7C2300",
"0  c #6E2704",
"q  c #5F521C",
"w  c #564A1A",
"e  c #7E5D1D",
"r  c #664D18",
"t  c #40403E",
"y  c #746724",
"u  c #4A4947",
"i  c #565553",
"p  c #62615E",
"a  c #696865",
"s  c #7C7C78",
"d  c #832500",
"f  c #892700",
"g  c #8C2800",
"h  c #922900",
"j  c #9C2C00",
"k  c #973903",
"l  c #8D3205",
"z  c #A22E00",
"x  c #A82F00",
"c  c #AB3100",
"v  c #A23000",
"b  c #B43300",
"n  c #BB3500",
"m  c #BC3900",
"M  c #C33700",
"N  c #C43B00",
"B  c #CC3900",
"V  c #D43C00",
"C  c #DC3E00",
"Z  c #E13F00",
"A  c #8E470E",
"S  c #A74504",
"D  c #B14F0A",
"F  c #B25802",
"G  c #B36508",
"H  c #916920",
"J  c #8A7427",
"K  c #AC7A26",
"L  c #B17F27",
"P  c #DC4000",
"I  c #D25209",
"U  c #E54100",
"Y  c #EA4200",
"T  c #EC4B02",
"R  c #EB4D0F",
"E  c #EE5200",
"W  c #ED5D0E",
"Q  c #ED5605",
"!  c #F15C00",
"~  c #F05600",
"^  c #C96608",
"/  c #DB6700",
"(  c #CB7000",
")  c #D67502",
"_  c #DD6B17",
"`  c #E66200",
"'  c #EF6408",
"]  c #F36300",
"[  c #F56A00",
"{  c #EF7C03",
"}  c #FA7C00",
"|  c #F67502",
" . c #EE6210",
".. c #F1781B",
"X. c #C85121",
"o. c #EC5F27",
"O. c #94832E",
"+. c #AB9735",
"@. c #B99C34",
"#. c #EF890E",
"$. c #F38302",
"%. c #FC8401",
"&. c #FE8B01",
"*. c #FA880A",
"=. c #FF9105",
"-. c #FE950A",
";. c #FD9C11",
":. c #F6971A",
">. c #E78817",
",. c #FEA317",
"<. c #FCAA1E",
"1. c #FCA419",
"2. c #C8902D",
"3. c #D89C2D",
"4. c #DE8F33",
"5. c #E58724",
"6. c #E09C2F",
"7. c #F79324",
"8. c #F28722",
"9. c #CEB63F",
"0. c #D5AB3C",
"q. c #EAA92C",
"w. c #FBAE23",
"e. c #FAA826",
"r. c #FDB325",
"t. c #FCBC2E",
"y. c #FBB62B",
"u. c #FCBF31",
"i. c #F7B638",
"p. c #E9A833",
"a. c #FBC334",
"s. c #F7C33A",
"d. c #FAC538",
"f. c #FBCB3D",
"g. c #CD8252",
"h. c #D78F55",
"j. c #D0B840",
"k. c #F5BD48",
"l. c #F6B851",
"z. c #CF9E65",
"x. c #D4A877",
"c. c #F8BB6C",
"v. c #E5C644",
"b. c #F6CE44",
"n. c #F9CE42",
"m. c #FBC642",
"M. c #FAD244",
"N. c #FADC4D",
"B. c #F8D54A",
"V. c #F9C75B",
"C. c #FADB53",
"Z. c #F8DA5D",
"A. c #F8DC6B",
"S. c #F7C17C",
"D. c #F2D875",
"F. c #F8CC6B",
"G. c #F8E066",
"H. c #F7E27C",
"J. c #969691",
"K. c #989893",
"L. c #AFAFA9",
"P. c #BBBAB3",
"I. c #B5B4AF",
"U. c #CAB688",
"Y. c #ECBE9F",
"T. c #F4C684",
"R. c #F6D797",
"E. c #F6E48C",
"W. c #F6E287",
"Q. c #F5E593",
"!. c #F5E49C",
"~. c #C3C2BD",
"^. c #F4DCA4",
"/. c #F4D2A5",
"(. c #F3E9BB",
"). c #F2E6B3",
"_. c #CCCBC5",
"`. c #D5D5CE",
"'. c #E0DFD9",
"]. c #EFD9C9",
"[. c #F2EAC3",
"{. c #F2EBCA",
"}. c #E5E4DD",
"|. c #EDE5D5",
" X c #F1ECD3",
".X c #F1EBDC",
"XX c #F1E6D1",
"oX c #EDECE5",
"OX c #E8E7E1",
"+X c #F0EEE5",
"@X c #F0EFE8",
/* pixels */
"                                                                                                                                ",
"                                                  Y                             Y Y Y                                           ",
"                                                    Y Y       F &.( (           Y Y Y                                           ",
"                                                  Y Y Y U 5 8 ) ,.1.&.$.v.K     i.&.T Y                                         ",
"                                                Y Y %.:.w.` e.&.B.N.a.&.&.c 5 Q N.y.T Y                                         ",
"                                Y T Y           U Y :.N.N.;.N.3.>.N.N.=.&.C n &.w.B.T Y                                         ",
"                                Y %.Y         v.T B.N.r.| &.<.N.N. X).=.&.&.{ %.a.N.y.}                                         ",
"                              Y Y ;.*.    O.@.N.5.B.f.%.*.&.N. X.X XW.d.Z.[.f.C.N.C.s.[         Y                               ",
"                                Y d.t.  j.N.3.e.a.N.Q..X@Xc.r.D.x.v.A q.G.^.^.F.Q.H.a.} /       [ }                             ",
"                                Y N.d.B.C.q.&.-.H.(.@X@X@X4.O . . . . . 8 N x.^.[.).;.&.&.$.  ! &.&.                            ",
"                                 .u.,.N.N.=.R.+X+X).h.5 O . . . . . . . & 6 w +X+X[.8.r.&.*.w.$.%.Y                             ",
"                              Y 1.n.,.G.r.t.!.+XU.O . . . . . . . . . . . . . P.@X+XT.V.c.C.C.-.&.Y                             ",
"                              Y %.!.(.@XV.f.M.2.. . . . . . . . . . . . . . . . . G =./.oX@X{.w.}                               ",
"                              U 7.@X@X@Xs.k X X . . . . . . . . . . . . . . . . . . % S g.@X X .E                               ",
"                              U Y T.@XB.D - . . . . . . . . . . . . . . . . . . . . . o < 3. .T &.                              ",
"                              C n k F 3 X . . . . . . . . . . . . . . . . . . . . . . . X * b U T Y                             ",
"                              Y U 6 % X . . . . . . . . . . . . . . . . . . . . . . . . . X z Z Y Y                             ",
"                              P b & . . . . . . . . . . . . . . . . . . . . . . . . . . . . O M Y Z                             ",
"                              V c . . . . . . . . . . . . . . . . . . . . . . . . . . . . . . g Y Y N.                          ",
"                              P b . . . . . . . . . . . . . . . . . . . . . . . . . . . . . . ; Y Y N.                          ",
"                              U n . . . . . . . . . . . . . . s @X. . . . . . . . . . . . . . - Y Y N.                          ",
"                            k Y b . . . . . }._.. . . . . . . oXa . . . . . . . . . . . . . . % Y C N.                          ",
"                            l Y n . . . . . , @X`.. . . . . . oX$ . . . . . . . . . . . . . . % Z B N.                          ",
"                            f Y c . . . . . . u @X@X. . . . . }.OX. . . . . . . . . . . . . . O C b N.                          ",
"                            9 Y j . . . . . . . . oX@XL.. . . s oX. . . . . . . . . > . . . . X n B                             ",
"                            4 Z 8 . . . . . . . . $ oX@X. . # oXp . . . . . . . . @X`.. . . . X n Y                             ",
"                          O.5 Z c . . . . . . . . . > oX. . . oX}.. . . . . . u @XoX. . . . . O B Y                             ",
"                          +.1 Z V % . . . . . . . . . . . . . $ }.oX. . . . . }.oX. . . . . . X B Y  .N.                        ",
"                          y ; C U * . . . . . . . . . . . . . . . }.oX. . . oXoX@ . . . . . . X V Y ..N.                        ",
"                          q 3 Z M + . . . . . . . . . . . . . . . oXi . . . _.. . . . . . . . X n Y Q N.                        ",
"                          q d Z 9 . . . . . . . . . . . . . . . t oX. . . . . . . . . . . . . . j Y W                           ",
"                          7 C Z % . . . . . . . . . . . . . . . . . . . . . . . . . . . . . . . f Y  .                          ",
"                          : Y U . . . . . . . . . . . . . . . . . . . o . . . . . . . . . . . X j U ..                          ",
"                          r C C . . . . . . . . # OXoX@X. . . . . . . @Xa . . . . . . . . . . . j Y 8.                          ",
"                          = Z Y . . . . . . . . o oX@X_.. . . . . . . _.oXoX. . . . . . . . . X j U                             ",
"                          H Z Y & . . . . . u }.@XoXK.. . . . . . . . . oXoXoX. . . . . . . . X j U                             ",
"                          7 B Y d . . . . . oXoXoX. . . . . . . . . . . X @X@X@Xo . . . . . . X n Y                             ",
"                          J n Y d . . . . . , oX. . . . . . . . . . . . . P.@XOXoX}.. . . . . O B Y                             ",
"                          J b Y j . . . . . . . . . . . . . . . . . . . . . I.oXoX@X> . . . . X n Z                             ",
"                          +.g U U . . . . . . . . . . . . . . . . . . . . . . @X@XoX. . . . . . c Z                             ",
"                            1 Y Y . . . . . . . . . . . . . . . . . . . . . . oXoX'.. . . . . X n U                             ",
"                          +.2 Y Y . . . . . . . . . . . . . . . . . . . . . . J.@XJ.. . . . . X c C                             ",
"                          j.; U Y . . . . . . . . . . . . . . . . . . . . . . . . . . . . . . . 5 M N.                          ",
"                            - U Y . . . . . . . . . . . . . . . . . . . . . . . . . . . . . . X g Z N.                          ",
"                            & C C . . . . . . . . . . . . . . . . . . . . . . . . . . . . . . X j C                             ",
"                            = j f . . . . O O . . . . . . . . . . . . . . . . . . - 1 5 . . . . 9 B N.                          ",
"                            w 3 M . . . . B C . . . . . . . . . . B j . . . . . . Y Y Y 4 . . O 9 n N.                          ",
"                            H b B . . . . 9 V + P Z 8 . . . . . . b d . . . . . + Y Y Y 1 . . 3 C U N.                          ",
"                            L n M . . . . B %.] &.E U . . . . . . U U V . . . . . B &.} V . X 8 C V                             ",
"                            K b N . . . . m ] [ { N - . . . . . X Y Y Y ; . . . . C &.} 2 . . 8 V M C.                          ",
"                            3 &.&.) . . . X E %.k . . . . . . . . &.&.m . . 5 O . O &.%.. . X j P n                             ",
"                            m &.&.&.d . . X Q &.} O . . . . & Y z &.&.. . U Y 8 . h } [ + . . V Y Y Y                           ",
"                            z T =.-.V O . . U %.} 5 . . . . 3 Y S &.} M C C B . 4 E ~ P . X . b Y Y Y                           ",
"                              U d.s.b C X 8 U -.1.8 . . . . 5 ] &.%.%.&.[ X . . ` &.&.j O Y 6 x Y Y Y                           ",
"                              T b.b.Y 2 & Y T r.N.Y V 9 4 . h } ,.M.M.w.&.O . m N 1.t.Y n Z P c Y Y                             ",
"                          Y Y &.(.m.Y 6 j Y } <.N.n.7.b n O Z ) N.N.M.&.| 1 * U U f.N.i.] T &.&.! Y                             ",
"                          T %.A.oXl.%.S ] E 1.C.N.G.C.s.n : :.#.N.Q.H.N.<.*.9 I } a.N.N.r.E -.&.} Y Y Y                         ",
"                            XX+X.X@X+XV.&.$.N.N.G.@X@X!.C.N.C.V.E.+X@X.XW.c.$.N.f.k. XE.C.e.N.N.R.c.T Y Y                       ",
"                        Y o.+X].X.|.@XD.@.) :..X@X@X[.@XoXN.b.|..X@X+X@X.X@X^ p.5.z..XQ.+X X X+X+Xc.} Y Y                       ",
"                            R   4 B.0.v.+.    +X  oXOXP._.            5     %             Y.)..XY.T Y Y Y                       ",
"                                                                                              h z Y                             ",
"                                                                                                                                ",
"                                                                                                                                ",
"                                                                                                                                "
};
