/* XPM */
static char *a8467d5b3378456d99d57ecb6b283c607Fnc9TX2SdgX8ECw[] = {
/* columns rows colors chars-per-pixel */
"64 64 256 2 ",
"   c black",
".  c #010101",
"X  c #020202",
"o  c gray1",
"O  c #040404",
"+  c gray2",
"@  c #060606",
"#  c #070707",
"$  c gray3",
"%  c #090909",
"&  c gray4",
"*  c #0B0B0B",
"=  c #0C0C0C",
"-  c gray5",
";  c #0E0E0E",
":  c gray6",
">  c #101010",
",  c #111111",
"<  c gray7",
"1  c #131313",
"2  c gray8",
"3  c #151515",
"4  c #161616",
"5  c gray9",
"6  c #181818",
"7  c #191919",
"8  c gray10",
"9  c #1B1B1B",
"0  c gray11",
"q  c #1D1D1D",
"w  c #1E1E1E",
"e  c gray12",
"r  c #202020",
"t  c gray13",
"y  c #222222",
"u  c #232323",
"i  c gray14",
"p  c #252525",
"a  c gray15",
"s  c #272727",
"d  c #282828",
"f  c gray16",
"g  c #2A2A2A",
"h  c gray17",
"j  c #2C2C2C",
"k  c #2D2D2D",
"l  c gray18",
"z  c #2F2F2F",
"x  c gray19",
"c  c #313131",
"v  c #323232",
"b  c gray20",
"n  c #343434",
"m  c #353535",
"M  c gray21",
"N  c #373737",
"B  c gray22",
"V  c #393939",
"C  c #3A3A3A",
"Z  c gray23",
"A  c #3C3C3C",
"S  c gray24",
"D  c #3E3E3E",
"F  c #3F3F3F",
"G  c gray25",
"H  c #414141",
"J  c gray26",
"K  c #434343",
"L  c #444444",
"P  c gray27",
"I  c #464646",
"U  c gray28",
"Y  c #484848",
"T  c #494949",
"R  c gray29",
"E  c #4B4B4B",
"W  c #4C4C4C",
"Q  c gray30",
"!  c #4E4E4E",
"~  c gray31",
"^  c #505050",
"/  c #515151",
"(  c gray32",
")  c #535353",
"_  c gray33",
"`  c #555555",
"'  c #565656",
"]  c gray34",
"[  c #585858",
"{  c gray35",
"}  c #5A5A5A",
"|  c #5B5B5B",
" . c gray36",
".. c #5D5D5D",
"X. c gray37",
"o. c #5F5F5F",
"O. c #606060",
"+. c gray38",
"@. c #626262",
"#. c gray39",
"$. c #646464",
"%. c #656565",
"&. c gray40",
"*. c #676767",
"=. c #686868",
"-. c DimGray",
";. c #6A6A6A",
":. c gray42",
">. c #6C6C6C",
",. c #6D6D6D",
"<. c gray43",
"1. c #6F6F6F",
"2. c gray44",
"3. c #717171",
"4. c #727272",
"5. c gray45",
"6. c #747474",
"7. c gray46",
"8. c #767676",
"9. c #777777",
"0. c gray47",
"q. c #797979",
"w. c gray48",
"e. c #7B7B7B",
"r. c #7C7C7C",
"t. c gray49",
"y. c #7E7E7E",
"u. c gray50",
"i. c #808080",
"p. c #818181",
"a. c gray51",
"s. c #838383",
"d. c #848484",
"f. c gray52",
"g. c #868686",
"h. c gray53",
"j. c #888888",
"k. c #898989",
"l. c gray54",
"z. c #8B8B8B",
"x. c gray55",
"c. c #8D8D8D",
"v. c #8E8E8E",
"b. c gray56",
"n. c #909090",
"m. c gray57",
"M. c #929292",
"N. c #939393",
"B. c gray58",
"V. c #959595",
"C. c gray59",
"Z. c #979797",
"A. c #989898",
"S. c gray60",
"D. c #9A9A9A",
"F. c #9B9B9B",
"G. c gray61",
"H. c #9D9D9D",
"J. c gray62",
"K. c #9F9F9F",
"L. c #A0A0A0",
"P. c gray63",
"I. c #A2A2A2",
"U. c gray64",
"Y. c #A4A4A4",
"T. c #A5A5A5",
"R. c gray65",
"E. c #A7A7A7",
"W. c gray66",
"Q. c #A9A9A9",
"!. c #AAAAAA",
"~. c gray67",
"^. c #ACACAC",
"/. c gray68",
"(. c #AEAEAE",
"). c #AFAFAF",
"_. c gray69",
"`. c #B1B1B1",
"'. c #B2B2B2",
"]. c gray70",
"[. c #B4B4B4",
"{. c gray71",
"}. c #B6B6B6",
"|. c #B7B7B7",
" X c gray72",
".X c #B9B9B9",
"XX c gray73",
"oX c #BBBBBB",
"OX c #BCBCBC",
"+X c gray74",
"@X c gray",
"#X c gray75",
"$X c #C0C0C0",
"%X c #C1C1C1",
"&X c gray76",
"*X c #C3C3C3",
"=X c gray77",
"-X c #C5C5C5",
";X c #C6C6C6",
":X c gray78",
">X c #C8C8C8",
",X c gray79",
"<X c #CACACA",
"1X c #CBCBCB",
"2X c gray80",
"3X c #CDCDCD",
"4X c #CECECE",
"5X c gray81",
"6X c #D0D0D0",
"7X c gray82",
"8X c #D2D2D2",
"9X c LightGray",
"0X c gray83",
"qX c #D5D5D5",
"wX c gray84",
"eX c #D7D7D7",
"rX c #D8D8D8",
"tX c gray85",
"yX c #DADADA",
"uX c gray86",
"iX c gainsboro",
"pX c #DDDDDD",
"aX c gray87",
"sX c #DFDFDF",
"dX c gray88",
"fX c #E1E1E1",
"gX c #E2E2E2",
"hX c gray89",
"jX c #E4E4E4",
"kX c gray90",
"lX c #E6E6E6",
"zX c #E7E7E7",
"xX c gray91",
"cX c #E9E9E9",
"vX c #EAEAEA",
"bX c gray92",
"nX c #ECECEC",
"mX c gray93",
"MX c #EEEEEE",
"NX c #EFEFEF",
"BX c gray94",
"VX c #F1F1F1",
"CX c gray95",
"ZX c #F3F3F3",
"AX c #F4F4F4",
"SX c gray96",
"DX c #F6F6F6",
"FX c gray97",
"GX c #F8F8F8",
"HX c #F9F9F9",
"JX c gray98",
"KX c #FBFBFB",
"LX c gray99",
"PX c #FDFDFD",
"IX c #FEFEFE",
"UX c white",
/* pixels */
"z c c x v l k x v c k h l c l j j l c l g h x v z z c j h k x n v j j z z x l h j v c x v c k l z j h j z l h z x z l x b c z c ",
"x b c x n x l x b c h g k z z k g h l z h f h l x c c x j h z b x h k x x x l h l b x l l k h k z x l k z z k k l k k c n n b n ",
"v c x c b c z x n c j k x c v z k l l k h f f g z v v c l h l v k j k l l x z j k z k j h g h k x v c l x x k z k k x v v v n m ",
"x l x v x c v c c x l x c v n b v b c h h k k j k c b c x l l x l l j g j x x k g g j l l l j k l x z z x l h z k k x x x l z c ",
"j z v c z c b x j l x l h k c b n n x j k c v z x c v v c v v c z x l h k c v z j j l c v v x l l k h x l f f j z l j j z k h l ",
"l k x v l j z k h l k g g k k x v v c z k k x v c x x x c c v v l v n c z c v v c x l z x x v v v l h l k h k k x v c c c z z v ",
"l h k x h g k l h k j g j x z l k l x c x z x z l k j k k k z b c b b x x c v c l k k j h j x c c c x k l x x z c v c v c x x z ",
"h g h k j g k k j l k k z x c z h h k x c x l l k k k k j g k c x c x z v b v x k j k j j k j k x n n z z c c l x z l z x x l l ",
"g f f h z k k k k z k z v z x x l h j z l h h z c v c z l k h h k k x b n b v c v c l j l x j j x n n c l z c h j l k l x z z x ",
"k g d h z z x x l l z v b v z x z j k z l g g l c v c z z l h h x z x n b l z z z v k g k z l j k z x x x c x g g k z l v v z l ",
"z j h k x l j j l x c c x x c v v x j j k h f h x c z c c v z j x z z v c z l x c z j l z j k l z x c z l z x h j l z c b c z z ",
"z x c x x z j f h l x x l k l c v x k k z j f f z v z z x v v z l k k k l x x x x k j k l l x v v x v x z z l k z c x x x z z x ",
"l c v z z c l h j j l c x k l c c l k z c z h f l v x j k l x x j j j j l c b c l l j j l b n v x z v c c x l z v v z l k k l l ",
"l l k j z b z k x z x v v x v b c k j j x v x j l x l j h j j j g k x x x c b v x c l l x v b z k x c c v v z x v x l x k j j h ",
"l z k j c n z g k z v b v z k k k k z k z v x z z z l l x c z k j x c l z v x x v v c x x c c x z z x c c c x k k z c c l l x z ",
"x x k j z b l g k z c c c x g f h l b v b v j j k l z x z l k k k c c k l c x l z v c c v v x z k j l z l l x h f k x l l c b c ",
"c c x k k v x l z l z l l x l k z x v b b c j j l z z c x j k z l x z l x c c c z c x v b v v c z k z z k z c j f k x l z v v x ",
"x v b x k x c x z k z k h z x x c c l z x z z x b v z x c z z v z z l k z c v v v c z x z l b m b c b c c b b l j l v c c c x z ",
"v v b b z z l k l x k g j z j h k l j l z l l v n b c j j j l v x x z j j c b c x v l j j j c v c x v b b b b c z z c x l z c x ",
"b z l z k l c x k l h k c c j k z k k l k l c c b v l j h k z l x b b z h z c z x b x z z l c c l k v c x z l x x z j h k l c b ",
"b l j k j j z z k k h l v c j z v c x l h l v z c v x c z z k h l v b x h j z c c n b v c z x z j k x l z z k k x z h g k x v b ",
"v c x z z k j k k k j j x c k x v c c l j l z k z v v v v x k k j l x x k k x c c b v x z l z k k z l l c c l l x x k j k c b c ",
"z c b b b v x l k l l k z v c c x l x l z z k j l l k k v c c c l l z c c c x z x x k j l k l l x c k z v c l c c z z z k c b v ",
"h k c b n b b c z x c c z c c c x x c c z z x c z j j x v c x b v v v c c c k j l z l z z z v b n v j k c v z j k z c c l c n v ",
"k h l c b z k k l c x z x c l k l x z c l k c b c k j x x z c v x b c z z c z k k k c x k z v c v n x k k l j k k l z l j k x c ",
"x j h x v k f g l v x z x l h g l x j l k j x b b x z v l z v c x b x j x b c k j k x z j k z l l x c z k h j x k j k h h j z v ",
"v z j l c z j j x v x x l h j j z z h k l l x c b v c b x x c x v n x k c b x j j l z l j j z z l k k x z k z c j g j h j k z c ",
"v v z j k c c x c v l h h j c c z k j x x z c z x c x c c c x z b n b v b c z k k x l h h l v v z z l j k x c k g g j l l j h j ",
"l x c x z x v n n n b x z c b v c v x c x z c v c z k j l x x c b c c b n v l h h l x l h k v x j k x z x c x j h l c c x j g k ",
"h x b v l k c n v n M n x z c v x z c v c z z x c z j j j k k l x k j z n b x l z x x z l z z l j z b b c x z j j x m n b l g j ",
"j z b c g g z c x c n n x h k z j h c n b z h k x z k k k j h j k j h l b c x c c c z l x x k l x c b b v c z l l v n v b z h j ",
"l k l z h h j z x z c v z h g g f j b m n x h l x z j h x z k l l l z c v z x x l l k l z z l z c c b v b n c l v m b l l k k x ",
"z j g j z l j k x x z z z k l j g j b b x z x c z k g g c c x c x z z v b v b c j h l c c z l k k x n n m n v k c n b x j h l v ",
"j h f g l x c x k k l k l c c k j z z x z x n n x l l l v c x c l k j k c v n c j k z x c x l l x b n n n n v j z c z l k j l v ",
"l j h j l x v v l h k k j z z z z z l l z c n v z x v c x k l x l j j k z z x z l z z l z v z l c b x x v v x h k k h k k l c b ",
"c l k z z z z x x z l l l l k x x k x l l x x l k z c x l k l l k j k z z z l z z z z j k c l j l z j l x c x j j k k z j z n n ",
"z k z x j l k j l c x x v v x x l k z l z x k l l l k k x x z l j h h j z v b x k l x l k l j k l k z v c c b x z c b x k z b b ",
"c c c x j j j j l x l j k l k x c l j j k z c z x v z k c x z x l j g g k z l l l k k x v v x v x k v b z z v c c b m v l j z c ",
"b b c l l h j k j j h g j l x v v x l k j l v c v b c j k l z c c j f h x x k j k j k c m m b b c c n v l l c v x l z c l g j c ",
"c b x k z j l z g j h g k x b c l l l j k l l x c c l h h l x c c j g l v c z k k z x c v b c c x c m b z k x b c j h k h j z v ",
"l x x l l j z x j z j g j l x k h g g g l z j k z l k j l c x z c k l v v x x x z b b c z c z c x z n n z k l z x z j j h x n n ",
"z k l z k l c v x k k j g h k j k k h j k k l x k l x z v b x k v v c b v c c z k x c x c v v b v x c c k h j h h l x c z v m m ",
"x j j x c c c c x z x k h z x k j z x k j l c x l x c l c n v l v v v n b x x x j j k z v v z x z l v c j j z l l k l c c b b v ",
"l j j l c b v c x l z l j z x k k c z h k c x k k l l k k c v z c c x x c x x x k g h l x z j j j k z x z l z x z k l z x v v c ",
"k z z k k x v b z j z z k k k h z v h h x b c l k j j l k x c k z z k j x c l l k j k z l k j g h l k z c x k l z x c x l x v c ",
"z v b z j h x v l k x x z c k f l c k z v n n v c z l c v v x j l l h k c z j j j z x z z z l h h l z l l l k z b n b x k z c z ",
"l c c l k h j x c z z z x c z h h k j x c x v c l k l c b c z z l z z k l j z x l z c c z l l h f g j x z h j v m n x j k l z z ",
"j l z l l j h k l k z v c l c l k z x c z k c k j l x l x x c b v z z x x l z c c l l x x k l j g j z b c k l c x l j h k x x l ",
"j l x x x z z l j g l v x h x l j z z c l k c k l v c j z z z c c z x c x x l z c z k x c l k j k x b c x c x z j f h z x c c l ",
"l x v b b b v x k h j c c k z l h h h x z k x l x b c j c z h h j x c k h l k j l k k l x x k j k x c k z v z z k h k c c x z c ",
"l z c b n b l j k l l c v c c c z h g l l j l k k z x j c x j k g k l h f g h j j h g h z v l k j g h k c v l z c c x l z l x n ",
"h j k z c l j h g h x c c b b v z g f k k k v c j j z l z l l l j l z k h k z x x x k h z v k l l g h z v b x z x x l z c z z b ",
"g j k j l l z l h g k j k c x x z j g k l l x c j h l x z l z c c c x z x c c c c c x l z c l x x j h l z c v x z k j z x k k c ",
"k x x k l x c c z k h g k l l z c c l l x x l x l k z v x l z b m b z z b v l l z z x z x c c v x j h k l z c v z j k x z h j x ",
"v b v x z z z z c x h k x l z c v b v z l c c c v v x x x k k c b v l z b x j h j z v v c c b b l g j x x x c b z j l v v z l x ",
"x l z c v v v x k l j z b x z l k l z k k z l k l x l j j j k k k h l v b v z j k v n b c x b c k j h k z c b b v z j l v b c l ",
"h h k z x v b c x c j z b z k j j l c c z k h g j z z j h k z l l j z v c c z z c v z x v v b z k l h h l c x x x l h k x b b x ",
"k l x z k c b c x z j z v z h k z z z x l k k g l z l z z c x l c z k z c x l z c z j z v c x k k x z k z x k l k j j j x n m b ",
"v v v c z x b v j g h l c c j k x l j k k l x j z z j x v v z k v x j l v v l k z l l c v l l l l z c x x x k k k k k j v m M m ",
"z l z b v l x c k g g k x z h h k z l c x z x j l l k v z k j k b v x x v v x z z z c v x k l z z k k z x z k h k l l z v n n b ",
"j k l l v x x x j g h z z h g j k k l l x v c h h k c n x z z l l x v b v x x c c b b x l z k j h h l x x l k k x c z l z x z z ",
"h z c x c z z x l h h z z h k k k k j h z v x x z x c c l x n x k x b c z l k l x x x k k v c l j j x v z k z z z x x l k z z l ",
"z c b v z j k z l k k l l k c l l x j j z c c v n b z k k z x z k c b x h h j k k j k k l v n b c z x c z l c c k h k j j z c x ",
"c x x x l h j k k k x x l l v z z c k l v n v l v b l k z k g g h x n c h g k k j j k l x v n b v c z l z c v v l g f f h z v v "
};
