/* XPM */
static char *d8a4d7abe55541b9da078534f2f035016lh7e24gvskdvDZU[] = {
/* columns rows colors chars-per-pixel */
"64 64 57 1 ",
"  c None",
". c #EB4200",
"X c #ED4A00",
"o c #EE4D00",
"O c #EF5000",
"+ c #EF5200",
"@ c #F15800",
"# c #F25B00",
"$ c #F36000",
"% c #F46200",
"& c #F46300",
"* c #F56800",
"= c #F66B00",
"- c #F16D00",
"; c #F26D00",
": c #F66C00",
"> c #F27300",
", c #F87300",
"< c #FB7B00",
"1 c #FB7C00",
"2 c #F68300",
"3 c #FD8400",
"4 c #FA8E00",
"5 c DarkOrange",
"6 c #F69300",
"7 c #FF9400",
"8 c #FF9C00",
"9 c #FFA100",
"0 c #FBA700",
"q c #FFA400",
"w c #FFAB00",
"e c #FFAC00",
"r c #FBB300",
"t c #FFB400",
"y c #FFB500",
"u c #FFB600",
"i c #FFB700",
"p c #FFBC00",
"a c #FFC400",
"s c #FFCC00",
"d c #FFD400",
"f c #FED508",
"g c #FEC614",
"h c #FDD614",
"j c #FDD71A",
"k c #FCD92E",
"l c #FCCA34",
"z c #FCDA34",
"x c #FABD4D",
"c c #FBDC48",
"v c #FADD4D",
"b c #F8E067",
"n c #F7E381",
"m c #F5E69B",
"M c #F3E9B4",
"N c #F2ECCE",
"B c #F0EFE8",
/* pixels */
"                                                                ",
"                                                                ",
"                                                                ",
"                                                                ",
"                                                                ",
"                                                                ",
"                                                                ",
"                                                                ",
"                                                                ",
"                                                                ",
"                                                                ",
"                                                                ",
"                                      .                         ",
"                            ...      ...                        ",
"                             ..        .                        ",
"                        .    ..                                 ",
"                      ....  .   ...  ..                         ",
"                      ....  5  ....  ...                        ",
"                      ...  *51$...   ...                        ",
"                      ..  ..#X.....                             ",
"                          #5,...  .. ...                        ",
"                          .#&...    .....                       ",
"                          .....     .,..                        ",
"                         .....+  ....1#..                       ",
"                     5#.  ..&5  .....XX.                        ",
"                     55.. ..5 .+.&,..X1:.                       ",
"                     55+. ..*5.&X15,.X15&                       ",
"                     553&.+*#1..#55+.#55,                       ",
"                       5117.....##..o555+.                      ",
"                       555;:5:+.1X+,3p853+                      ",
"                       tp8>*553,5<37addt7q                      ",
"                       daa>.+,555*<0dddtad                      ",
"                        ddr...:55556dddtdd                      ",
"                         pdr6;277q75wddddd                      ",
"                        qsdddtdqtdt55dddw                       ",
"                       tddjvdtdaddd55dda                        ",
"                      qdddnBzddddda58dda                        ",
"                      qddbBvlqddddq8sdddw                       ",
"                       qamvdddtdddtfhdddd                       ",
"                        tkzddzdddddnMdddd                       ",
"                         eadzNbddddMBzddd                       ",
"                         tgdvBMjdddvBmddq                       ",
"                       dddxdvBBvzmzcBMja                        ",
"                       djMBtdbBnBBBdmBvq                        ",
"                      ddjMndzzBBBBnzNMja                        ",
"                      dddzvzMMBBBBvxBbddd                       ",
"                       dzNnzMBBBBvtBBddd                        ",
"                       dvBndjMBBMjdnBzdd                        ",
"                          dddzBBMjdnBzd                         ",
"                           dzNBBBvdBBd                          ",
"                           djMBBBvd                             ",
"                                                                ",
"                                                                ",
"                                                                ",
"                                                                ",
"                                                                ",
"                                                                ",
"                                                                ",
"                                                                ",
"                                                                ",
"                                                                ",
"                                                                ",
"                                                                ",
"                                                                "
};
