/* XPM */
static char *_e36d68f4ea1411181aa7eec73e8ab1607Vql004HEDvMqwf[] = {
/* columns rows colors chars-per-pixel */
"64 64 192 2 ",
"   c #870000",
".  c #8A0101",
"X  c #930101",
"o  c #9C0101",
"O  c #A30101",
"+  c #AC0101",
"@  c #B40101",
"#  c #BC0101",
"$  c #C30101",
"%  c #CC0101",
"&  c #D30101",
"*  c #DC0101",
"=  c #DB0B01",
"-  c #CD1801",
";  c #DF1302",
":  c #D91B01",
">  c #E40101",
",  c #EB0201",
"<  c #E10A01",
"1  c #EA0B02",
"2  c #F40101",
"3  c #FC0101",
"4  c #F30B01",
"5  c #FC0B01",
"6  c #E41501",
"7  c #EC1402",
"8  c #F21302",
"9  c #FC1401",
"0  c #F41C01",
"q  c #FD1C01",
"w  c #C32C00",
"e  c #D92301",
"r  c #D12801",
"t  c #DE2C01",
"y  c #D13600",
"u  c #DC3100",
"i  c #D03C00",
"p  c #DC3900",
"a  c #E62301",
"s  c #EF2501",
"d  c #E52B01",
"f  c #F52300",
"g  c #FD2301",
"h  c #F62B01",
"j  c #FC2B01",
"k  c #E53501",
"l  c #EC3301",
"z  c #E43C01",
"x  c #EF3D01",
"c  c #F33401",
"v  c #FD3301",
"b  c #F53B01",
"n  c #FD3B01",
"m  c #DB4400",
"M  c #E34501",
"N  c #EB4400",
"B  c #E24A02",
"V  c #EA4F00",
"C  c #F24601",
"Z  c #FD4401",
"A  c #F44C02",
"S  c #FD4B01",
"D  c #E65100",
"F  c #EA5300",
"G  c #EC5E01",
"H  c #F55401",
"J  c #FD5301",
"K  c #F65B01",
"L  c #FE5B01",
"P  c #D56000",
"I  c #DD6700",
"U  c #DF6901",
"Y  c #E36E01",
"T  c #EE6A00",
"R  c #FD6401",
"E  c #F46B01",
"W  c #FD6C01",
"Q  c #EB7300",
"!  c #EF7C01",
"~  c #F57501",
"^  c #FD7301",
"/  c #F57B01",
"(  c #FE7B01",
")  c #DC8B00",
"_  c #F48601",
"`  c #FE8301",
"'  c #F58B01",
"]  c #FD8D01",
"[  c #E39101",
"{  c #EC9701",
"}  c #F59400",
"|  c #FE9301",
" . c #F59B01",
".. c #FE9D01",
"X. c #EBA500",
"o. c #EDA900",
"O. c #F2A702",
"+. c #FEA301",
"@. c #F4AB02",
"#. c #FEAE01",
"$. c #FFAC02",
"%. c #FEAF02",
"&. c #FEAD01",
"*. c #FEAB01",
"=. c #F0B301",
"-. c #FDB101",
";. c #FFB301",
":. c #FBB701",
">. c #FBB502",
",. c #FBB602",
"<. c #FEB501",
"1. c #FDB601",
"2. c #FFB701",
"3. c #FEB301",
"4. c #F4BB01",
"5. c #FDBB01",
"6. c #FEBA01",
"7. c #FEB802",
"8. c #FEB902",
"9. c #FEB901",
"0. c #FBBF00",
"q. c #FCBD00",
"w. c #FEBD00",
"e. c #FEBD01",
"r. c #FDBE00",
"t. c #FCBF00",
"y. c #FCBF01",
"u. c #FEBF00",
"i. c #FEBE01",
"p. c #FFBD02",
"a. c #FEBC02",
"s. c #FFBF02",
"d. c #FEBF03",
"f. c #FDBC01",
"g. c #FBC100",
"h. c #FBC101",
"j. c #FBC200",
"k. c #FCC000",
"l. c #FCC100",
"z. c #FDC100",
"x. c #FCC101",
"c. c #FFC001",
"v. c #FCC200",
"b. c #FDC200",
"n. c #FDC300",
"m. c #FCC201",
"M. c #FDC201",
"N. c #FCC301",
"B. c #FDC301",
"V. c #FEC300",
"C. c #FEC201",
"Z. c #FEC301",
"A. c #FFC301",
"S. c #FDC103",
"D. c #FEC102",
"F. c #FEC103",
"G. c #FFC103",
"H. c #FDC302",
"J. c #FFC303",
"K. c #FDC400",
"L. c #FDC401",
"P. c #FEC400",
"I. c #FFC400",
"U. c #FEC500",
"Y. c #FEC401",
"T. c #FFC401",
"R. c #FEC501",
"E. c #FFC501",
"W. c #FCC600",
"Q. c #FCC402",
"!. c #FDC402",
"~. c #FDC403",
"^. c #FDC503",
"/. c #FEC402",
"(. c #FFC402",
"). c #FEC502",
"_. c #FFC502",
"`. c #FEC403",
"'. c #FEC602",
"]. c #FFC602",
"[. c #FFC702",
"{. c #FEC603",
"}. c #FFC603",
"|. c #FEC703",
" X c #FFC703",
".X c #FEC704",
"XX c #FFC704",
"oX c #FEC301",
"OX c #FFC802",
"+X c #FFC803",
"@X c #FFC804",
"#X c #FFC903",
/* pixels */
"Y.Y.Z.Y.@X{.{.y.y.Z.Z.y.y.Z.Z.h.h.@XY.Y.@X@X{.Z.Z.@XY.{.@X@X@X@XY.Y.Y.Y.Y.Y.Y.Y.Z.<.-.7.,.@.O.O.O.O.@.>.>.>.h.h.Z.OX@XY.Y.h.Z.Y.",
"Y.@X{.Y.Q.Q.y.Z.Q.Y.y.y.<.$.7.Z.Y.Z.Y.Y.Y.@X{.{.S.>.$.$.<.y.Y.Y.OXOXY.Y.Y.Y.Y.<.+.$.+.] / F k u p p z N T | } +.7.y.Y.Y.Y.Y.Y.Y.",
"@X@X{.y.>.&.*.( L J S J ^ +...$.y.y.Z.Y.OX{.{.S.-.+.+.$.$.$.$.$.7.Y.{.Y.Y.Y.7.+.] J Z 2 , * % $ $ $ % & * a 2 h | ..$.Y.Y.Q.Y.Y.",
"{.{.S.&.' / C 3 3 3 3 3 3 ` +...$.y.Y.Y.Y.Q.y.+...( L S Z L | +.+.-.Y.{.Y.Y.<.$.^ 3 3 2 , & % # # @ # $ % & > , ~ $...<.Y.h.h.Y.",
"Y.S.' C 6 * > , 3 3 3 3 3 ` +...+.y.Y.Y.Q.h.$.+.R 5 3 2 2 2 h ^ +.+.y.@X@X{.7.+.] Z 9 3 , * & % $ $ $ $ % % * , f ] +.$.Y.h.Q.h.",
"Z.+.h > & $ % * 4 ^ R L ( +...+.+.y.Z.Z.Z.7.$.` 5 2 , * * * , 2 ^ +.+.Z.Y.Y.y.-.+.+.] ^ / ! Q Y U I m * & & * , 3 ^ +.$.Y.OXY.h.",
"Z.( , & # @ $ * C y.$.$.$...+.+.+.-.Y.Y.Y.<.$.W 2 , & $ @ $ & , 9 | +.$.Z.Z.Z.y.-.+.$.-.+... . . . .{ Q l 7 1 2 v } +.<.Y.@XY.h.",
"d._ > $ + + $ 6  .>.....S g q L $.+.7.Y.Y.-.$.W 2 * # O o + $ > 2 ( +.+.Z.y.$.+.$.$.( W J q 5 g n ^ | +.+.' ] } ..+.<.h.h.h.Q.Y.",
"7.' = # + @ % z :.....n 3 3 3 3 n | -.Z.Z.-.*.W 2 & @ o X o # > 2 ( +.+.$.+.+.+.W j 5 3 3 3 3 3 3 5 q n ] +.*.+.$.y.Y.Z.Z.h.Z.{.",
"-.' e # + @ % G @.+.^ 3 3 3 3 3 2 v ..7.{.-.+.` 8 & + X X O # > 2 ( $.......^ Z 3 3 3 3 5 2 3 2 3 3 3 3 3 v ^ ..$.7.Z.{.{.Y.Z.Y.",
"$.} p # + @ r { &...n 3 2 2 , > 2 2 S <.S.-...+.b & # O O @ % , g | +.....n 3 3 3 5 2 2 > * > > > , 2 2 3 3 3 J ..+.<.{.@XY.Y.Y.",
"&.} t $ + # i o.+.J 3 3 2 * % & * , 5 ] S.7...*.H > # + + $ > 2 L $...+.J 3 3 3 2 , * & $ # # # # % * > 2 3 3 3 W +.+.Z.@X@X@XY.",
"&.' 6 $ @ # i o.] 5 3 3 * $ @ + $ * 2 n -.7...*.b > % @ # % , v ..+.+.` 9 3 2 , * & # + o o X o o + @ & > 5 3 3 v +...<.@X{.Y.Y.",
"@.} p $ @ # P =.( 3 3 , & @ o o + % , 2 ( -...+.h , % $ $ & 7 ] +...+.S 3 2 , & # + o X . .   . . X O $ > 2 3 3 q ..+.+.y.Y.Y.Y.",
"&.} B $ # w ) 4.] 3 3 > $ O X . o @ & 2 v +...+.j , * % & > c $.......g 3 , & # O X . .         . X o # * 2 3 3 g +.+...7.OXY.Y.",
"&.' ; % $ - [ 4.+.9 2 * @ o . . X O % , 5 ] +...j 2 1 > > , C $...$.( 3 2 * # o . .           .   X + % , 3 3 3 L +...$.Y.Y.Y.Y.",
">./ > & % : X.,.Q.H , & + X . .   o # = 2 Z *.+.L 3 2 , 2 2 ( +...-.L 3 1 % + X .               . O $ * 2 5 3 S ..+...<.Y.OXY.Y.",
">.H , * * k 4.h.*.q , $ O .     . X + & 2 5 ] +...S 5 5 9 W +...+.] g 2 > $ O .         .     . X @ * , 3 3 g +.+...>.Z.Y.Y.Y.Z.",
"<.S 2 , , E W.@.v 3 > $ o .       . O % > 3 Z *.....` ( ] +...+.` g 3 2 * @ X .             . X O $ > 2 3 9 ` +...-.Z.y.Z.Y.Z.h.",
"7.] 0 5 b >.#X` 3 2 > $ o .   .   . o $ > 3 q ..+.+.+.+.$.+.+.` 9 3 2 > % O .             . . O # * 2 3 v ` +.+.7.Z.h.Z.y.h.Z.h.",
"7.$.| ` +.y.y.W 3 3 , $ O . . . . . o # * 2 q ..+...$.7.$.+.| g 3 2 > % + o .           . X + $ * , 3 Z +.+...<.Y.h.Z.Y.h.h.Y.Y.",
"h.<.$.$.7.<.$.W 3 3 , % + . . .   . X @ * 2 Z +.-.7.y.<.+.+.S 3 3 , & @ o .       . . X o @ $ * , 3 Z ....+.-.d.h.Z.Y.@XY.h.h.Y.",
"Q.Y.Y.Z.Z.-.$.( 3 3 2 * # o . .   . o # * 4 ` $.y.Z.Z.$.+.] 5 3 2 & # o . .   .   . X O @ % > 2 3 b +...+.+.+.7.Z.Y.Y.Q.h.h.h.Y.",
"Y.Y.Y.Z.Z.y.+...S 3 2 , % @ o X X o + % , v +.+.Z.Z.y.-.$.L 3 3 , % + X .   . . . o + $ & , 2 3 J *.+.....+...+.$.-.Z.h.h.Q.h.y.",
"Y.OXY.Y.Y.Y.y.$...R 5 2 , & $ @ @ # % > 2 ~ +.7.Y.Y.Z.<.+.v 3 5 > % O X . . . o O # & > , 2 3 J $.....+.....+.+.....$.+.>.-.$.+.",
"$.7.Z.Y.Y.Y.{.7.+.+.J 3 2 , > * * * > 2 h ..+.Y.OXOXZ.-.| q 3 3 , & # + o O O @ $ * , 2 3 3 Z +.+...+...+.$.` J h v E ....O. ...",
"$.$.$.<.Y.Y.Y.Z.<.+...v 3 3 5 2 2 2 3 q ` +.$.,.7.y.Z.$.| q 3 3 2 , & $ $ # % * > , 3 3 9 L ......+.+.+.` Z 5 2 2 , 1 d a d k z ",
"A H ( +.-.7.Z.Y.y.-.$.| j 3 3 3 3 3 v | +. ...+...+.$.$...n 3 3 3 2 , , > > , 2 2 3 5 n | +...+...+...J 4 2 , > & & $ $ # # # # ",
"> , 2 S ] $.7.Y.Z.Z.<.$.| J v n J ^ ..+. .} _ ! '  . ...+.` g 3 3 3 3 3 2 4 9 5 9 n ( +.+...+...+.| n 2 , > & $ @ O o o o o o o ",
"$ % > 2 9 ( $.y.Y.Y.Y.y.-.+.$.$.$.+... .] l 6 < 6 h ~ +.+.+.` R j 3 5 v L ` | ` | $.+.+...+...+...v 2 > & # + o X X . . . . . . ",
"o + % < 2 9 ] $.<.Y.Y.Y.Z.<.7.y.y.-.+.*.H > * & & , 0 ....+.+.$...` | ..+.+.+.+.+.........+.+.+.Z 3 2 & # O X . .   .         . ",
"X o @ * , 3 S +.+.7.OXOXY.Z.Q.OXY.y.+.+.C > * & * > 7 ..+.7.<.&.-.<.-.-.-.-.-.-.-.<.-.+.+...$.( 5 3 > $ O X . .                 ",
". . + % , 3 n +.+.$.Y.S.Z.y.>.-.<.-...+.] l V V > , c +.+.Z.Y.Y.Y.Y.h.Z.Y.Q.Y.h.h.h.Z.Z.d.$.+.R 3 3 , $ + X   .                 ",
"  . O $ > 3 Z +.+.-.<.$.+.+.......+.+.+.+.+. .} E K ] ..$.Y.Y.Y.Y.Z.h.h.Q.Z.h.h.y.Z.Y.Y.{.7.$.^ 3 3 , & @ o . . .   .           ",
"  . O $ , 5 ` -.+.] ` ..+.+.+.+.+.+.] ( ` ] +...+.+.$.-.Z.Z.<.<.7.y.<.<.y.y.y.h.Z.Z.Y.Z.S.S.-.| v 3 2 > % @ O . . . .       .   ",
". X O % , Z $.+.S 9 9 q j ^ +.+.W j 5 5 5 g W $.+.$.Z.Y.y.+.+...` ` | $.-.<.-.&.<.7.y.Z.h.Z.7.$.( 5 3 2 , % # O X .             ",
"X o # * 2 } $.Z 3 3 3 3 3 5 R J 3 3 2 3 3 3 3 R +.$.Z.Z.$.+.] v 3 3 q R J S L | +.+.$.7.Y.Y.{.7.$.^ 9 3 2 , * $ @ o X . . . . . ",
"+ # & > K $.` 3 3 3 2 , > , > , , > , , 2 5 3 3 ( +.-.7.+...n 3 3 3 3 3 3 3 3 9 g R ..$.d.@XY.{.<.$.` n 9 9 2 > % # + O o X X X ",
"& * , c +.d.Z 3 3 2 > & $ $ $ % % $ $ & > 2 3 3 9 ..+.$.+.| 5 3 3 3 2 2 , , > 2 2 3 j ` $.Z.Y.Y.Y.-.+.+.] | n 2 , > & $ # @ + + ",
", 2 g } $.d.v 3 5 , & @ O O O O O O O @ % > 2 3 3 W $...+.] 9 3 3 3 2 < & $ % * > 2 3 5 R +.-.S.Y.y.-.+.+.+.` q 3 2 , > 1 = & & ",
"Z L ] *.7.7.v 3 2 , $ O X . . X . . . o + % > 2 3 v +...+.+.Z 3 5 3 , & @ + + @ % * , 3 3 W *.$.y.Z.Z.7.$...+.( g 3 5 q ~ K 7 8 ",
"+.+.$.y.7.$.S 3 3 > $ O . .     . . . . o @ & , 3 5 ` <.-.+.] g 3 3 , $ O X X o O # & > 2 5 W +.$.Z.Y.{.y.-.+.+...( ( | +.....| ",
"+.$.y.Z.$.+.^ 3 3 , $ O X   . .         . O $ > 2 3 v -.Z.$.+.] 5 3 , % + X . . X O @ % * , 3 ^ +.+.S.@X@XZ.y.<.7.7.7.7.-.+.+.+.",
"d.h.Z.Z.$.+.| 9 3 , % O . .         .   . X + % > 5 3 L Z.<...+.^ 3 , * # o X . . . o O # & , 4 ( +.$.{.@XY.Y.OX{.S.{.{.Y.y.y.S.",
"h.h.h.Z.-...+.L 3 2 % + .       . .       . o @ & , 2 5 } y.$...+.q 3 , & @ o X . . . X O # & , n $...-.@XOXY.Y.Y.Y.Y.{.{.h.Z.Z.",
"y.y.y.Z.7...+.] 5 , % + X                 . X o # * , 3 n $.>.+.+.v 3 3 > % @ o X . . X o + % > 8 ( +.+.S.Y.Y.Y.OXY.Y.Z.h.Z.Y.Y.",
"4.h.h.Z.<.+...+.Z , % + . .                 . X O $ > 2 3 ( Z.>.$.^ 3 3 3 > & # + O o o O + % , 3 v ....<.OXOXY.7.-.$.+.$.Z.Y.@X",
"h.Z.Z.Y.7.+.+...b , % O X .                     o @ * 2 3 n 7.Z.$.| g 3 3 2 , * & % $ # # $ & , 3 3 ` +.7.Y.y.+.+.....+...$.@X@X",
"Y.Y.Y.Y.y.+.+.J 2 > $ o .       .               X + & , 3 9 ..Y.<.$.W 3 3 3 3 3 , , > > * > , 2 3 3 ` $.Z.S.+.+.+.+.+...+.+.S.@X",
"Y.Y.Z.Z.7.$.` 3 , & + X . .         .           . O % , 3 q | 7.Z.<.+.L 3 3 3 3 3 3 3 2 3 2 5 3 3 j | <.@X7.*.| | ] ..+...+.d.@X",
"Y.Y.h.Z.-.+.n 3 , $ O .                       . . o $ < 2 S $.+.y.y.-.$.L 5 3 3 q W J q 5 3 3 3 j ` $.Y.{.-.( 8 3 3 q ( +.+.d.{.",
"h.{.Y.y.$.] 9 2 > $ o X . .   .     .           . o # * 2 J $...Z.Y.y.<.$.( L L ` +.+...] ` ( ( | <.S.Z.>.` 9 2 2 2 3 9 ` +.7.Y.",
"h.{.Y.<.$.( 3 3 > $ + o X X X X X X X o X X . . . o # * 2 q | $.S.{.Y.Z.y.7.7.7.<.+.+.+.+.$.$.y.{.@X@X7.+.R 2 > * * , 3 R +.-.Y.",
"h.Y.Z.+.$.` 3 3 , & $ @ @ @ @ @ @ @ @ @ + O O o O @ % > 2 3 ` $.y.{.Y.Z.h.Z.Y.Y.Z.Z.d.y.S.{.Y.@XS.d.7.+...c > % # $ * , L $.<.Y.",
"h.Z.-.+.+.R 3 5 2 , * & & * & * * * * * & % $ $ $ % * , 3 3 S +.-.OXY.Y.Z.7.$.$.*.*.$.+.] ` | +...+... .A , % @ + + % > ^ +.<.Y.",
"h.Z.$...+.g 3 3 3 2 2 2 2 2 0 0 0 f q 2 2 , , > > , 2 2 3 3 Z $.+.{.Y.Y.-.+...L f q f 7 , 2 , 1 8 x G d * & # O o O $ > C +.7.Y.",
"Z.Z.$.+.$.n 3 3 3 3 n L L ~ | | | +.] ^ n 3 3 5 2 3 5 3 3 3 W +.$.Y.Y.y.+.+.Z 3 2 , * & & & & & & & % $ # @ O o o O $ > 4 ( y.Y.",
"y.Z.y.+.+.| Z v n W +.+.$.$.+.+...+.+.$...R g 3 3 3 3 3 3 v +...7.@XY.$.+.^ 3 2 > % # @ + + + + @ @ + O o o o X o + % , 3 R 7.Z.",
"h.Z.Z.7.+.+.+...$.$.......+.+.+.+.+.....+.+...^ j 5 5 5 n ..+.$.Y.Y.Y.$.+.R 3 2 * $ + o o o o O O O o o o o o o O $ * 2 3 ( y.Z.",
"Y.h.Z.Z.7.-.$.$.+...+.-.7.7.y.Z.y.<.+.......+.+.+.| ` ` ....$.S.Z.Z.Z.-.+.( 3 2 * $ + o o O O + + + + + O O + @ $ * , 2 Z $.Z.Z.",
"Z.h.Z.Z.Z.Y.Y.h.y.7.Z.OXY.Y.Y.Y.Y.Z.<.$.$.-.+.+...+.+.+.+.$.Z.{.y.Z.Z.y.$...Z 2 > & $ # # # $ $ $ $ $ % % % % : M s f L -.Z.Z.Y.",
"h.Z.Z.h.h.Z.Z.Z.Y.h.Z.@XOXY.{.{.@X@XY.Y.Y.Y.7.-.-.$.$.-.7.Z.Y.{.Z.Z.Z.Z.7.<...J 0 , > * * t B d , , > , 1 N T '  .+.-.y.Z.y.Y.Y.",
"y.Z.Z.Z.h.Z.h.h.h.Y.Y.Y.{.@X@XOXOXY.Y.Y.Y.Y.h.h.Z.Y.{.{.Y.Z.Y.Z.Z.Z.Z.Y.Y.Y.Z.7.@...( E /  .@..._ ^ ^ ]  .$.*.*.&.7.Z.Z.Z.Z.Q.{.",
"h.h.Z.Z.Y.Y.h.h.h.Y.@XOXY.OXY.{.Y.Z.Y.Y.Z.Z.y.h.Z.Y.h.h.h.Z.h.h.Z.Z.Z.Z.h.Z.Y.Z.h.Q.W.OXOXY.y.Z.Y.#X#XQ.h.4.y.Y.Y.Y.Y.Y.Y.{.{.h."
};
